<svg width="25" height="25" viewBox="0 0 25 25" fill="none" xmlns="http://www.w3.org/2000/svg">
<path d="M12.4999 0.833313C14.047 0.833313 15.5307 1.44789 16.6247 2.54186C17.7187 3.63582 18.3333 5.11955 18.3333 6.66665C18.3333 8.21374 17.7187 9.69747 16.6247 10.7914C15.5307 11.8854 14.047 12.5 12.4999 12.5C10.9528 12.5 9.46909 11.8854 8.37513 10.7914C7.28117 9.69747 6.66658 8.21374 6.66658 6.66665C6.66658 5.11955 7.28117 3.63582 8.37513 2.54186C9.46909 1.44789 10.9528 0.833313 12.4999 0.833313ZM12.4999 15.4166C18.9458 15.4166 24.1666 18.0271 24.1666 21.25V24.1666H0.833252V21.25C0.833252 18.0271 6.05408 15.4166 12.4999 15.4166Z" fill="black"/>
</svg>