<svg width="20" height="16" viewBox="0 0 20 16" fill="none" xmlns="http://www.w3.org/2000/svg">
<path d="M1.796 0.0979879C1.74347 0.0585913 1.6837 0.0299269 1.62009 0.0136311C1.55648 -0.00266469 1.49029 -0.00627272 1.42529 0.00301314C1.36029 0.012299 1.29775 0.0342969 1.24125 0.0677507C1.18475 0.101205 1.1354 0.145459 1.096 0.197988C1.0566 0.250517 1.02794 0.310291 1.01164 0.373897C0.995347 0.437504 0.991739 0.503697 1.00103 0.568698C1.01031 0.633699 1.03231 0.696235 1.06576 0.752735C1.09922 0.809234 1.14347 0.858591 1.196 0.897988L3.198 2.39999C3.25053 2.43938 3.3103 2.46805 3.37391 2.48434C3.43752 2.50064 3.50371 2.50425 3.56871 2.49496C3.63371 2.48568 3.69625 2.46368 3.75275 2.43023C3.80925 2.39677 3.8586 2.35252 3.898 2.29999C3.9374 2.24746 3.96606 2.18769 3.98236 2.12408C3.99865 2.06047 4.00226 1.99428 3.99297 1.92928C3.98369 1.86428 3.96169 1.80174 3.92824 1.74524C3.89478 1.68874 3.85053 1.63938 3.798 1.59999L1.796 0.0979879ZM1 4.99999C0.867392 4.99999 0.740215 5.05267 0.646447 5.14643C0.552678 5.2402 0.5 5.36738 0.5 5.49999C0.5 5.6326 0.552678 5.75977 0.646447 5.85354C0.740215 5.94731 0.867392 5.99999 1 5.99999H2.5C2.63261 5.99999 2.75979 5.94731 2.85355 5.85354C2.94732 5.75977 3 5.6326 3 5.49999C3 5.36738 2.94732 5.2402 2.85355 5.14643C2.75979 5.05267 2.63261 4.99999 2.5 4.99999H1ZM9.998 -1.2158e-05C13.147 -1.2158e-05 15.742 2.33399 15.982 5.35499L15.996 5.57699L16 5.80199L15.999 9.39799L16.924 11.62C16.9465 11.674 16.9643 11.7299 16.977 11.787L16.993 11.873L17.001 12.004C16.9999 12.2247 16.9258 12.4388 16.7904 12.6129C16.6549 12.7871 16.4656 12.9116 16.252 12.967L16.136 12.994L16.001 13.004H12.5L12.495 13.164C12.4548 13.7984 12.1745 14.3937 11.711 14.8287C11.2475 15.2638 10.6357 15.506 10 15.506C9.36432 15.506 8.7525 15.2638 8.28902 14.8287C7.82553 14.3937 7.54518 13.7984 7.505 13.164L7.5 13.004H3.999C3.91121 13.0042 3.82378 12.9928 3.739 12.97L3.615 12.927C3.41314 12.8419 3.2448 12.6929 3.13586 12.5028C3.02692 12.3128 2.98341 12.0922 3.012 11.875L3.033 11.748L3.076 11.62L3.999 9.39999L4 5.79299L4.004 5.56899C4.127 2.44999 6.771 -1.2158e-05 9.998 -1.2158e-05ZM11.5 13.004H8.5L8.507 13.145C8.54065 13.4913 8.69361 13.8151 8.9397 14.061C9.18579 14.3069 9.50971 14.4596 9.856 14.493L10 14.5C10.3729 14.5 10.7324 14.3611 11.0084 14.1104C11.2844 13.8597 11.4572 13.5151 11.493 13.144L11.5 13.004ZM9.998 0.999988C7.375 0.999988 5.228 2.92299 5.018 5.38499L5.004 5.59699L5 5.80199V9.49999L4.962 9.69199L3.999 12.004L15.957 12.006L16.002 12.004L15.038 9.69199L15 9.49999V5.81199L14.996 5.60799C14.891 3.03399 12.695 0.999988 9.998 0.999988ZM18.904 0.197988C18.8244 0.0919012 18.706 0.0217668 18.5747 0.00301314C18.4434 -0.0157405 18.3101 0.0184229 18.204 0.0979879L16.202 1.59999C16.0959 1.67955 16.0258 1.798 16.007 1.92928C15.9883 2.06055 16.0224 2.1939 16.102 2.29999C16.1816 2.40607 16.3 2.47621 16.4313 2.49496C16.5626 2.51372 16.6959 2.47955 16.802 2.39999L18.804 0.897988C18.9101 0.818423 18.9802 0.699974 18.999 0.568698C19.0177 0.437423 18.9836 0.304074 18.904 0.197988ZM19.5 5.49999C19.5 5.36738 19.4473 5.2402 19.3536 5.14643C19.2598 5.05267 19.1326 4.99999 19 4.99999H17.5C17.3674 4.99999 17.2402 5.05267 17.1464 5.14643C17.0527 5.2402 17 5.36738 17 5.49999C17 5.6326 17.0527 5.75977 17.1464 5.85354C17.2402 5.94731 17.3674 5.99999 17.5 5.99999H19C19.1326 5.99999 19.2598 5.94731 19.3536 5.85354C19.4473 5.75977 19.5 5.6326 19.5 5.49999Z" fill="black"/>
</svg>