<svg width="127" height="165" viewBox="0 0 127 165" fill="none" xmlns="http://www.w3.org/2000/svg">
<path d="M121.481 63.2363V63.399L121.49 63.5376L121.49 63.5423L121.49 63.5429L121.491 63.5662C121.493 63.6027 121.496 63.6737 121.498 63.7784C121.503 63.9879 121.507 64.3323 121.497 64.805C121.479 65.7504 121.408 67.2091 121.19 69.1286L121.166 69.3419C121.004 70.6868 120.774 72.2498 120.447 73.9911L120.446 74.0002L120.444 74.0093C120.333 74.6149 120.222 75.1875 120.101 75.7477L120.098 75.763L120.094 75.7783C116.65 92.1982 104.759 123.691 63.5009 158.281C55.0012 150.083 41.7237 137.054 29.913 121.617C16.3662 103.91 5.42457 83.8824 5.09768 65.0059L5.09717 64.9766L5.09632 64.9473C5.08516 64.5631 5.05772 64.1807 5.03918 63.9222C5.03647 63.8845 5.03396 63.8494 5.03171 63.8174C5.03144 63.8135 5.03116 63.8096 5.0309 63.8058L5.07394 61.9058C5.78871 30.3588 31.5389 5 63.2419 5C95.4067 5 121.481 31.0696 121.481 63.2363Z" fill="#A25140" stroke="white" stroke-width="10"/>
<path d="M86.1273 34.2867L82.682 34.3232L82.7624 41.7081C74.0012 44.225 61.9885 45.4475 50.8982 46.1741C57.616 64.4154 69.9158 79.0954 81.1108 94.8882C85.0763 91.1645 90.8935 88.8289 97.0855 88.066C93.1043 84.6351 90.0735 82.7677 85.8245 74.7213C91.8098 81.7471 95.8885 83.9035 100.682 86.4685C101.307 83.9878 102.393 81.8007 104.265 80.2783C105.924 78.9294 108.098 78.2599 110.683 78.3186C101.711 66.9963 91.2229 56.1423 86.2158 42.4295L86.1273 34.2867ZM48.2471 36.4985L44.8021 36.5447C44.8021 36.5447 44.85 40.0193 44.9093 43.5488C44.9392 45.3138 44.9715 47.0922 45.0029 48.4612C45.0144 48.9606 45.0253 49.3289 45.0362 49.7006C38.4561 65.564 31.7997 80.2012 21.3172 93.9269C27.7551 93.6641 34.0124 93.699 40.1806 93.9191C44.4419 82.0561 44.6492 68.3704 46.9999 55.6484C49.1852 68.6377 49.0223 82.0667 53.4087 94.6436C61.6319 95.2275 69.8103 96.0073 78.1671 96.7135C67.5115 81.7181 55.5404 67.3413 48.4766 49.4706C48.467 49.133 48.4574 48.8272 48.4475 48.3837C48.4165 47.0279 48.3837 45.2533 48.3541 43.492C48.2947 39.9693 48.2471 36.4985 48.2471 36.4985Z" fill="white"/>
</svg>