<svg width="18" height="13" viewBox="0 0 18 13" fill="none" xmlns="http://www.w3.org/2000/svg">
<path d="M5.9999 10.17L2.5299 6.69999C2.34292 6.51301 2.08933 6.40796 1.8249 6.40796C1.56048 6.40796 1.30688 6.51301 1.1199 6.69999C0.932924 6.88696 0.827881 7.14056 0.827881 7.40499C0.827881 7.53592 0.85367 7.66556 0.903775 7.78653C0.95388 7.90749 1.02732 8.0174 1.1199 8.10999L5.2999 12.29C5.6899 12.68 6.3199 12.68 6.7099 12.29L17.2899 1.70999C17.4769 1.52301 17.5819 1.26941 17.5819 1.00499C17.5819 0.74056 17.4769 0.486964 17.2899 0.299986C17.1029 0.113008 16.8493 0.00796509 16.5849 0.00796509C16.3205 0.00796509 16.0669 0.113008 15.8799 0.299986L5.9999 10.17Z" fill="black"/>
</svg>