<svg width="127" height="165" viewBox="0 0 127 165" fill="none" xmlns="http://www.w3.org/2000/svg">
<path d="M121.481 63.2363V63.399L121.49 63.5376L121.49 63.5423L121.49 63.5429L121.491 63.5662C121.493 63.6027 121.496 63.6737 121.498 63.7784C121.503 63.9879 121.507 64.3323 121.497 64.805C121.479 65.7504 121.408 67.2091 121.19 69.1286L121.166 69.3419C121.004 70.6868 120.774 72.2498 120.447 73.9911L120.446 74.0002L120.444 74.0093C120.333 74.6149 120.222 75.1875 120.101 75.7477L120.098 75.763L120.094 75.7783C116.65 92.1982 104.759 123.691 63.5009 158.281C55.0012 150.083 41.7237 137.054 29.913 121.617C16.3662 103.91 5.42457 83.8824 5.09768 65.0059L5.09717 64.9766L5.09632 64.9473C5.08516 64.5631 5.05772 64.1807 5.03918 63.9222C5.03647 63.8845 5.03396 63.8494 5.03171 63.8174C5.03144 63.8135 5.03116 63.8096 5.0309 63.8058L5.07394 61.9058C5.78871 30.3588 31.5389 5 63.2419 5C95.4067 5 121.481 31.0696 121.481 63.2363Z" fill="#806B9B" stroke="white" stroke-width="10"/>
<path d="M72.7656 31.0938C69.7814 31.1056 66.9229 32.2963 64.8127 34.4065C62.7026 36.5166 61.5119 39.3752 61.5 42.3594C61.5 48.5458 66.5792 53.625 72.7656 53.625C78.9521 53.625 84.0312 48.5458 84.0312 42.3594C84.0312 36.1729 78.9521 31.0938 72.7656 31.0938ZM72.7656 37.5312C75.4694 37.5312 77.5938 39.6556 77.5938 42.3594C77.5938 45.0631 75.4694 47.1875 72.7656 47.1875C70.0619 47.1875 67.9375 45.0631 67.9375 42.3594C67.9375 39.6556 70.0619 37.5312 72.7656 37.5312ZM58.5838 48.8967C56.9487 49.0608 55.3651 49.8655 54.2578 51.2109L46.7131 60.3651C44.1123 63.5323 45.2421 68.5375 48.9276 70.3239L59.9904 75.7539L57.0742 91.8477L63.4119 92.9549L66.8303 74.4471L67.2326 72.033L65.0213 70.9258L51.641 64.4883L59.2887 55.2344L72.3633 65.7951L73.2678 66.5H90.4688V60.0625H75.4822L63.3089 50.3065C61.9773 49.2396 60.2823 48.7339 58.5838 48.8967ZM37.3594 72.9375C29.4123 72.9375 22.875 79.4748 22.875 87.4219C22.875 95.369 29.4123 101.906 37.3594 101.906C45.3065 101.906 51.8438 95.369 51.8438 87.4219C51.8438 79.4748 45.3065 72.9375 37.3594 72.9375ZM85.6406 72.9375C77.6935 72.9375 71.1562 79.4748 71.1562 87.4219C71.1562 95.369 77.6935 101.906 85.6406 101.906C93.5877 101.906 100.125 95.369 100.125 87.4219C100.125 79.4748 93.5877 72.9375 85.6406 72.9375ZM37.3594 79.375C41.798 79.375 45.4062 82.9832 45.4062 87.4219C45.4062 91.8605 41.798 95.4688 37.3594 95.4688C35.2257 95.467 33.18 94.6187 31.6713 93.11C30.1625 91.6013 29.3142 89.5555 29.3125 87.4219C29.3125 82.9832 32.9207 79.375 37.3594 79.375ZM85.6406 79.375C90.0793 79.375 93.6875 82.9832 93.6875 87.4219C93.6875 91.8605 90.0793 95.4688 85.6406 95.4688C83.507 95.467 81.4612 94.6187 79.9525 93.11C78.4438 91.6013 77.5955 89.5555 77.5938 87.4219C77.5938 82.9832 81.202 79.375 85.6406 79.375Z" fill="#FFFAFA"/>
</svg>