<svg width="127" height="165" viewBox="0 0 127 165" fill="none" xmlns="http://www.w3.org/2000/svg">
<path d="M121.481 63.2363V63.399L121.49 63.5376L121.49 63.5419L121.49 63.5429L121.491 63.5662C121.492 63.5847 121.493 63.6122 121.494 63.6484C121.496 63.6835 121.497 63.7269 121.498 63.7784C121.503 63.9879 121.507 64.3323 121.497 64.805C121.479 65.7504 121.408 67.2091 121.19 69.1286L121.166 69.3419C121.004 70.6868 120.774 72.2498 120.447 73.9911L120.446 74.0002L120.444 74.0093C120.333 74.6149 120.222 75.1875 120.101 75.7477L120.098 75.763L120.094 75.7783C116.65 92.1982 104.759 123.691 63.5009 158.281C55.0012 150.083 41.7237 137.054 29.913 121.617C16.3662 103.91 5.42457 83.8824 5.09768 65.0059L5.09717 64.9766L5.09632 64.9473C5.08516 64.5631 5.05772 64.1807 5.03918 63.9222C5.03647 63.8845 5.03396 63.8494 5.03171 63.8174C5.03144 63.8135 5.03116 63.8096 5.0309 63.8058L5.07394 61.9058C5.78871 30.3588 31.5389 5 63.2419 5C95.4067 5 121.481 31.0696 121.481 63.2363Z" fill="#F5AA38" stroke="white" stroke-width="10"/>
<path d="M24.9381 31.3945L41.959 56.7598L41.6953 52.4355L27.5801 31.3945H24.9381ZM32.0273 31.3945L59.4844 53.0332L58.6055 45.6855L79.9629 68.4492L85.4648 112.605H94.5527V31.3945H32.0273ZM44.4199 48.6562L45.0527 59.5195C44.1738 60.8203 40.8164 65.2324 35.0508 65.9883C34.3301 66.0762 33.7852 66.6914 33.7852 67.4297C33.7852 67.4297 33.6445 73.9688 41.8184 82.0371L47.918 72.2461C46.6875 70.9629 45.457 69.3457 44.1387 67.2012L48.9902 61.9102C49.3066 61.5762 49.4297 61.1367 49.3594 60.6797L47.3203 48.3398C46.8457 46.3711 44.3496 47.0215 44.4199 48.6562ZM32.1504 53.4023C30.5332 53.4023 29.1797 54.0703 28.4941 55.2129C27.2461 57.2871 28.4766 60.3281 31.2715 61.998C34.0664 63.668 37.3359 63.2988 38.5664 61.207C39.7969 59.1152 38.5488 56.0918 35.7715 54.4395C34.6289 53.7715 33.3633 53.4023 32.1504 53.4023ZM59.4844 66.7969L51.9961 72.5449L49.8691 86.625C52.0488 87.1699 54.334 87.3281 56.6016 87.0117L60.5566 86.4668L68.625 95.3262C68.959 95.6777 69.4336 95.8535 69.9082 95.7832L75.0059 95.0801C76.9746 94.5 76.2715 92.1797 74.7598 92.1621L70.998 92.2852L65.6191 80.666C65.4258 80.2793 65.0918 79.998 64.6875 79.875L57.8848 77.9063L61.8574 74.4961L71.0508 77.8008C71.8769 78.0645 72.6855 77.6074 72.9492 76.8691L74.7949 70.8926C75.0937 68.9062 72.7383 68.502 72.0703 69.8379L70.6465 72.8437L61.1719 66.7266C60.6094 66.4102 59.9766 66.4629 59.4844 66.7969ZM48.3574 77.0977L44.0859 83.9355C45.0176 84.6035 46.0195 85.1836 47.0566 85.6406L48.3574 77.0977ZM51.6973 90.1582L57.2344 112.605H59.4844L53.9648 90.2109C53.209 90.2285 52.4531 90.2109 51.6973 90.1582Z" fill="white"/>
</svg>