<svg width="74" height="23" viewBox="0 0 74 23" fill="none" xmlns="http://www.w3.org/2000/svg">
<mask id="mask0_44_3182" style="mask-type:luminance" maskUnits="userSpaceOnUse" x="0" y="0" width="74" height="23">
<path d="M0 0H74V22.0887H0V0Z" fill="white"/>
</mask>
<g mask="url(#mask0_44_3182)">
<path d="M30.3409 20.821C30.4624 20.9957 30.4001 21.2228 30.2012 21.3298L28.8997 22.0297C28.8311 22.0668 28.7551 22.0843 28.6803 22.0843C28.5382 22.0843 28.4004 22.0209 28.3206 21.9074C28.1991 21.7327 28.2614 21.505 28.4596 21.3986L29.7612 20.6987C29.96 20.5917 30.2193 20.6468 30.3409 20.821ZM46.3556 9.78454C46.3319 9.81566 46.3132 9.84951 46.3014 9.88499L45.5073 12.2314L40.6402 14.8485L42.2796 11.6145L44.806 8.32801L49.2915 5.9516L46.3556 9.78454ZM33.1135 7.73623L28.5257 7.41904C28.4017 7.41031 28.2801 7.45016 28.1928 7.52714L20.6355 14.2513L18.2107 12.2822C18.1041 12.1959 17.9545 12.1637 17.8143 12.1975L12.3358 13.5078L18.1328 9.27574L22.7555 7.94204C22.7923 7.93112 22.8278 7.91584 22.8602 7.89673L34.2666 1.10869L33.1135 7.73623ZM73.5431 12.6212C71.1027 12.7145 70.4993 10.9921 70.4189 10.7181V9.59838C70.8833 10.0739 71.5883 10.5194 72.6473 10.6629C72.6685 10.6657 72.6903 10.6668 72.7115 10.6668C72.9154 10.6668 73.0949 10.5363 73.1273 10.3534C73.1622 10.1514 73.0051 9.96251 72.7751 9.9314C70.9724 9.68791 70.4893 8.30235 70.4189 8.06105V6.94027C70.8035 7.33388 71.3545 7.70729 72.1343 7.9071C72.1736 7.91747 72.2135 7.92184 72.2515 7.92184C72.4341 7.92184 72.6031 7.81648 72.6561 7.65488C72.7209 7.4589 72.5931 7.25417 72.3699 7.19685C70.7985 6.79451 70.4326 5.45972 70.4108 5.37401C70.4108 5.37401 70.4108 5.37401 70.4108 5.37346C70.4108 5.37291 70.4095 5.37182 70.4095 5.37073C70.4083 5.36363 70.4046 5.35708 70.4021 5.35108C70.4008 5.34726 70.3996 5.34289 70.3977 5.33852C70.394 5.32869 70.3921 5.31832 70.3877 5.30849C70.3859 5.30577 70.3852 5.30413 70.3846 5.30194C70.3796 5.29157 70.3728 5.28284 70.3659 5.27301C70.3647 5.26973 70.3622 5.26646 70.3609 5.26373C70.3572 5.25827 70.3541 5.25226 70.3497 5.24626C70.3485 5.24462 70.3466 5.24189 70.3453 5.23916C70.3372 5.22934 70.3266 5.22005 70.3179 5.21077C70.3148 5.2075 70.3123 5.20422 70.3092 5.20149C70.3061 5.19822 70.303 5.1944 70.2998 5.19112C70.2973 5.18894 70.2949 5.1873 70.293 5.18457C70.283 5.17638 70.2724 5.16983 70.2612 5.16219C70.2543 5.15727 70.2487 5.15236 70.2419 5.14799C70.2406 5.1469 70.2394 5.14635 70.2387 5.14581C70.2356 5.14363 70.2331 5.14199 70.23 5.1398C70.2188 5.13434 70.2063 5.12889 70.1945 5.12343C70.1826 5.11797 70.1708 5.11142 70.1583 5.1065C70.144 5.10159 70.1284 5.09831 70.1141 5.09449C70.1022 5.09176 70.0916 5.08794 70.081 5.08576C70.058 5.08194 70.0349 5.08084 70.0112 5.0803C70.0069 5.07975 70.0025 5.07866 69.9981 5.07866H69.9969C69.9826 5.07866 69.967 5.08139 69.9514 5.08303C69.9383 5.08412 69.9246 5.08412 69.9115 5.08685C69.9115 5.08685 69.9115 5.08685 69.9109 5.08685C69.9053 5.08739 69.9009 5.09012 69.8959 5.09067C69.8735 5.09558 69.8523 5.10104 69.8317 5.10869C69.8205 5.11305 69.8099 5.11906 69.7987 5.12397C69.7856 5.12998 69.7725 5.13598 69.76 5.14308C69.7482 5.15018 69.7376 5.15946 69.7276 5.1671C69.717 5.1742 69.7064 5.18075 69.6977 5.18894C69.6883 5.19767 69.6809 5.2075 69.6721 5.21623C69.6665 5.22224 69.6609 5.22715 69.6566 5.2337C69.6547 5.23479 69.6541 5.23589 69.6528 5.23752C69.6503 5.23971 69.6491 5.24189 69.6466 5.24462C69.6391 5.2539 69.6341 5.26373 69.6285 5.2741C69.6248 5.28011 69.6204 5.28611 69.6173 5.29212C69.616 5.29485 69.6135 5.29758 69.6123 5.30085C69.6104 5.30249 69.6098 5.30467 69.6086 5.3074C69.6029 5.31996 69.5992 5.33252 69.5948 5.34507C69.5942 5.34889 69.5924 5.35271 69.5911 5.35654C69.5899 5.362 69.5867 5.36582 69.5861 5.37073C69.5855 5.37182 69.5855 5.37291 69.5855 5.37346C69.5855 5.37401 69.5849 5.37401 69.5849 5.37401C69.5624 5.46081 69.1965 6.79451 67.6257 7.19685C67.4026 7.25417 67.2735 7.4589 67.339 7.65488C67.3932 7.81648 67.5609 7.92184 67.7435 7.92184C67.7828 7.92184 67.8227 7.91693 67.862 7.9071C68.6411 7.70729 69.1915 7.33388 69.5768 6.94027V8.06105C69.5057 8.30235 69.0239 9.68791 67.2206 9.9314C66.9905 9.96251 66.8328 10.1514 66.8684 10.3534C66.8995 10.5363 67.0797 10.6668 67.2841 10.6668C67.3047 10.6668 67.3271 10.6657 67.3483 10.6629C68.4074 10.5194 69.1124 10.0739 69.5768 9.59838V10.7186C69.4988 10.9921 68.9104 12.7151 66.452 12.6212C66.2182 12.6119 66.0231 12.7702 66.0125 12.9749C66.0026 13.1786 66.1827 13.3511 66.4158 13.3604C66.4944 13.3631 66.571 13.3647 66.6471 13.3647C68.0995 13.3647 69.0133 12.8221 69.5768 12.2401V17.0852H66.7107L64.3445 12.2816C64.2952 12.1812 64.1974 12.1053 64.0777 12.0736L60.0952 11.0413L50.6541 4.64192C50.5164 4.54857 50.3281 4.53874 50.1792 4.6179L44.5579 7.59592L35.0184 0.105821C34.8744 -0.00718599 34.6612 -0.0202882 34.501 0.0752487L22.4363 7.25527L17.7931 8.59497C17.7432 8.60971 17.6965 8.63264 17.6553 8.66157L6.11739 17.0852H4.46742V12.2401C5.03091 12.8221 5.94472 13.3647 7.3971 13.3647C7.47252 13.3647 7.55044 13.3631 7.62898 13.3604C7.86148 13.3511 8.04163 13.1786 8.03165 12.9749C8.02106 12.7702 7.82471 12.6119 7.5922 12.6212C5.15059 12.7156 4.54783 10.991 4.46742 10.7181V9.59838C4.9318 10.0733 5.6368 10.5194 6.69584 10.6629C6.71766 10.6657 6.73885 10.6668 6.76005 10.6668C6.9645 10.6668 7.14402 10.5363 7.17644 10.3534C7.21134 10.1514 7.05364 9.96251 6.82363 9.9314C5.02094 9.68791 4.53848 8.30235 4.46742 8.06105V6.94027C4.85264 7.33388 5.40304 7.70729 6.18284 7.9071C6.22211 7.91747 6.262 7.92184 6.30127 7.92184C6.48329 7.92184 6.65159 7.81648 6.70519 7.65488C6.77002 7.4589 6.64224 7.25417 6.41908 7.19685C4.84827 6.79451 4.48175 5.46081 4.45931 5.37401C4.45931 5.37401 4.45931 5.37401 4.45931 5.37346C4.45931 5.37291 4.45869 5.37182 4.45869 5.37073C4.45682 5.36363 4.45308 5.35817 4.45121 5.35162C4.45059 5.34944 4.44934 5.34726 4.44872 5.34453C4.44435 5.33197 4.44124 5.31887 4.43563 5.3074C4.435 5.30522 4.43376 5.30413 4.43313 5.30194C4.42815 5.29157 4.42129 5.28338 4.41568 5.27356C4.40945 5.26373 4.40446 5.25336 4.3976 5.24462C4.39636 5.24244 4.39511 5.24135 4.39386 5.23916C4.38638 5.23043 4.37766 5.22224 4.36955 5.21405C4.36207 5.20531 4.35522 5.19713 4.34649 5.18894C4.34462 5.18785 4.34337 5.18675 4.3415 5.18457C4.3334 5.17747 4.32342 5.17147 4.31407 5.16546C4.3041 5.15836 4.29475 5.14963 4.28415 5.14308C4.28228 5.14253 4.28042 5.14144 4.27854 5.1398C4.26857 5.13434 4.25797 5.12998 4.24738 5.12506C4.24675 5.12506 4.24613 5.12397 4.24551 5.12397C4.23429 5.11906 4.22431 5.11305 4.21247 5.10869C4.2106 5.10814 4.20873 5.10759 4.20686 5.1065C4.19439 5.10213 4.1813 5.0994 4.16884 5.09613C4.16198 5.09449 4.15575 5.09231 4.14889 5.09122C4.1439 5.09012 4.13892 5.08739 4.13331 5.08685C4.13331 5.08685 4.13331 5.08685 4.13268 5.08685C4.13144 5.08685 4.13019 5.08576 4.12894 5.08576C4.11274 5.08357 4.09591 5.08303 4.07908 5.08139C4.06848 5.08084 4.05788 5.07866 4.04729 5.07866C4.04666 5.07866 4.04666 5.07866 4.04666 5.07866C4.04604 5.07866 4.04604 5.07866 4.04542 5.07866C4.03669 5.07866 4.02734 5.08084 4.01861 5.08084C3.99991 5.08194 3.98184 5.08303 3.96376 5.08576C3.96251 5.08576 3.96127 5.08685 3.96002 5.08685C3.95441 5.08739 3.94942 5.09012 3.94444 5.09122C3.93883 5.09176 3.93384 5.09395 3.92885 5.09504C3.91389 5.09886 3.89956 5.10159 3.88584 5.1065C3.88397 5.10759 3.8821 5.10814 3.88023 5.10869C3.86901 5.11305 3.85842 5.11906 3.84782 5.12397C3.8366 5.12943 3.82476 5.13434 3.81416 5.14035C3.81229 5.14144 3.81104 5.14253 3.80917 5.14308C3.79858 5.14963 3.78923 5.15727 3.77925 5.16437C3.7699 5.17147 3.75993 5.17747 3.7512 5.18512C3.74933 5.18675 3.74809 5.18785 3.74684 5.18894C3.73811 5.19713 3.73126 5.20531 3.72315 5.21405C3.71505 5.22224 3.70632 5.23043 3.69884 5.23971C3.6976 5.24135 3.69697 5.24298 3.69573 5.24462C3.68825 5.25336 3.68326 5.26373 3.67703 5.2741C3.67142 5.28393 3.66456 5.29212 3.65957 5.30249C3.65895 5.30413 3.6577 5.30577 3.6577 5.3074C3.65147 5.31887 3.64835 5.33197 3.64399 5.34453C3.64212 5.34999 3.64025 5.3549 3.63838 5.36036C3.63776 5.36473 3.63526 5.36855 3.63402 5.37237C3.63402 5.37237 3.63402 5.37291 3.63402 5.37346V5.37401C3.62155 5.42314 3.2569 6.79123 1.67425 7.19685C1.45109 7.25417 1.32268 7.4589 1.38751 7.65488C1.44174 7.81648 1.60942 7.92184 1.79206 7.92184C1.83133 7.92184 1.8706 7.91693 1.90987 7.9071C2.69028 7.70729 3.24069 7.33388 3.62529 6.94027V8.06051C3.55734 8.2887 3.06865 9.68846 1.2697 9.9314C1.03907 9.96251 0.881361 10.1514 0.916892 10.3534C0.948682 10.5363 1.1282 10.6668 1.33266 10.6668C1.35385 10.6668 1.37567 10.6657 1.39748 10.6629C2.45591 10.5194 3.1609 10.0739 3.62529 9.59838V10.7181C3.54488 10.991 2.94211 12.7145 0.501126 12.6212C0.268622 12.6119 0.0716476 12.7702 0.0616742 12.9749C0.0517008 13.1786 0.231845 13.3511 0.464349 13.3604C0.54289 13.3631 0.620184 13.3647 0.696231 13.3647C2.1486 13.3647 3.06242 12.8221 3.62529 12.2401V17.4553C3.62529 17.659 3.81416 17.8255 4.04666 17.8255H6.26948C6.27634 17.8255 6.28257 17.8233 6.28943 17.8233C6.30439 17.8228 6.31872 17.8217 6.33368 17.8195C6.34677 17.8178 6.35986 17.8157 6.37233 17.8129C6.38604 17.8097 6.39914 17.8058 6.41223 17.802C6.42532 17.7976 6.43841 17.7933 6.45087 17.7878C6.46272 17.7829 6.47394 17.7774 6.48516 17.7714C6.49762 17.7643 6.51009 17.7572 6.52256 17.7496C6.52754 17.7458 6.53378 17.7436 6.53876 17.7398L10.7737 14.6482L17.8106 12.9646L20.3631 15.0374C20.4435 15.103 20.5464 15.1363 20.6486 15.1363C20.7577 15.1363 20.8668 15.0997 20.9491 15.026L28.6547 8.16969L33.4376 8.50107C33.6576 8.51581 33.8534 8.37933 33.887 8.18825L35.1081 1.16874L43.9539 8.11401L41.5603 11.2269C41.546 11.2449 41.5341 11.264 41.5241 11.2842L39.3736 15.5304L32.1398 19.4201C31.941 19.5266 31.8786 19.7542 32.0002 19.9284C32.08 20.0425 32.2183 20.1058 32.3598 20.1058C32.4346 20.1058 32.5107 20.0883 32.5799 20.0512L46.0857 12.7888C46.1742 12.7413 46.2397 12.6659 46.269 12.578L47.0912 10.1509L50.5351 5.65516C50.5638 5.61749 50.5825 5.57654 50.5937 5.53505L59.6433 11.6691C59.6844 11.6969 59.7305 11.7182 59.781 11.7313L63.6495 12.7347L66.0468 17.6022C66.1154 17.7414 66.2712 17.8255 66.4339 17.8255C66.4414 17.8255 66.4495 17.8233 66.4576 17.8233C66.4651 17.8233 66.4725 17.8255 66.48 17.8255H69.9981C70.2306 17.8255 70.4189 17.659 70.4189 17.4553V12.2401C70.9818 12.8221 71.8962 13.3647 73.3492 13.3647C73.424 13.3647 73.5019 13.3631 73.5805 13.3604C73.8123 13.3511 73.9925 13.1786 73.9819 12.9749C73.9725 12.7702 73.7768 12.6113 73.5431 12.6212Z" fill="black"/>
</g>
</svg>