<svg width="303" height="303" viewBox="0 0 303 303" fill="none" xmlns="http://www.w3.org/2000/svg">
<mask id="mask0_11_7" style="mask-type:luminance" maskUnits="userSpaceOnUse" x="0" y="0" width="303" height="303">
<path d="M3.52606 1.66147H2.02606V3.16147V299.13V300.63H3.52606H299.526H301.026V299.13V3.16147V1.66147H299.526H3.52606Z" fill="white" stroke="white" stroke-width="3"/>
</mask>
<g mask="url(#mask0_11_7)">
<path d="M10.795 124.025C23.6745 57.3746 83.1196 7.84897 151.661 7.84897C217.839 7.84897 275.218 53.1688 290.895 116.72L271.649 103.549L271.638 103.541L271.627 103.533C270.87 103.036 269.927 102.888 269.045 103.153L230.326 113.85L158.407 61.2063L158.343 61.1596L158.275 61.1199L157.827 60.8595L157.477 60.6563H157.073H156.562H156.359L156.163 60.7104L155.465 60.9031L155.228 60.9685L155.025 61.1061L154.832 61.2363L154.814 61.2485L154.796 61.2612L88.7976 108.698L66.9135 94.4157L66.845 94.371L66.7719 94.3339L66.3917 94.1412L66.072 93.9792H65.7135H65.2883C64.7477 93.9651 64.2021 94.0935 63.7231 94.353L63.7135 94.3581L63.704 94.3635L10.795 124.025ZM292.819 125.547C296.889 148.05 295.542 171.192 288.904 193.061L238.858 170.631L238.566 170.5H238.245H236.589H235.949L235.506 170.961L235.391 171.081L208.512 198.081L136.804 139.996L136.391 139.661H136.241L136.048 139.536H135.604H133.693H133.017L132.569 140.042L88.1868 190.187L50.6873 169.915L50.3535 169.734H49.974H48.3802H47.7409L47.6159 169.865H47.5329L47.1005 170.269L16.3353 199.038C10.9317 183.706 8.18398 167.564 8.21355 151.294L8.21354 151.289C8.20361 144.789 8.6338 138.293 9.49954 131.849L65.078 100.612L87.1915 115.022L87.2993 115.093L87.4176 115.144L87.8655 115.336L88.1494 115.458H88.4583H88.901H88.9373L88.9735 115.457C89.5778 115.427 90.1769 115.224 90.6802 114.849L156.498 67.3909L227.86 119.692C228.425 120.108 229.105 120.316 229.789 120.302H230.151H230.354L230.55 120.248L269.384 109.537L292.819 125.547ZM243.17 203.453L243.155 203.45L243.14 203.449L215.415 200.065L237.773 177.593L265.708 200.554L265.709 200.555L281.051 213.191C277.644 220.321 273.652 227.157 269.12 233.629L245.141 204.562C245.14 204.561 245.139 204.56 245.139 204.559C244.641 203.951 243.936 203.562 243.17 203.453ZM232.228 269.96L205.896 225.332L205.873 225.292L205.847 225.254L205.717 225.061L205.681 225.008L205.64 224.958L155.849 163.4L206.784 204.763L206.863 204.828L206.951 204.881L207.269 205.074L207.628 205.292H207.86L208.004 205.341L208.153 205.392L208.311 205.411L241.106 209.35L265.321 238.679C256.022 250.8 244.849 261.361 232.228 269.96ZM151.663 294.74H151.662C111.18 294.734 72.6051 277.629 45.4235 247.687L103.595 182.237L103.595 182.236L134.784 147.177L200.691 228.67L227.039 273.317C204.405 287.337 178.3 294.76 151.663 294.74ZM39.6687 185.734L24.649 218.029C22.4751 213.875 20.504 209.619 18.7477 205.271L39.6687 185.734ZM3.63583 129.474L3.63574 129.475C2.57312 136.702 2.03656 143.988 2.02604 151.29L2.02604 151.291C1.99974 187.487 15.1312 222.458 38.9688 249.695C93.3105 311.96 187.831 318.378 250.096 264.036C290.195 229.04 308.683 175.377 298.65 123.104C285.203 52.7606 223.417 1.66147 151.661 1.66147C77.4487 1.66673 14.4579 56.061 3.63583 129.474ZM287.01 198.982C285.978 201.786 284.881 204.584 283.715 207.353L273.474 198.94L273.473 198.94L257.371 185.698L283.054 197.195L283.059 197.197L287.01 198.982ZM41.3393 242.976C36.564 237.218 32.2387 231.098 28.4122 224.672L50.6605 176.882L83.9778 194.969L41.3393 242.976Z" fill="black" stroke="black" stroke-width="3"/>
</g>
</svg>

