<svg width="127" height="165" viewBox="0 0 127 165" fill="none" xmlns="http://www.w3.org/2000/svg">
<path d="M121.481 63.2363V63.399L121.49 63.5376L121.49 63.5423L121.49 63.5429L121.491 63.5662C121.493 63.6027 121.496 63.6737 121.498 63.7784C121.503 63.9879 121.507 64.3323 121.497 64.805C121.479 65.7504 121.408 67.2091 121.19 69.1286L121.166 69.3419C121.004 70.6868 120.774 72.2498 120.447 73.9911L120.446 74.0002L120.444 74.0093C120.333 74.6149 120.222 75.1875 120.101 75.7477L120.098 75.763L120.094 75.7783C116.65 92.1982 104.759 123.691 63.5009 158.281C55.0012 150.083 41.7237 137.054 29.913 121.617C16.3662 103.91 5.42457 83.8824 5.09768 65.0059L5.09717 64.9766L5.09632 64.9473C5.08516 64.5631 5.05772 64.1807 5.03918 63.9222C5.03647 63.8845 5.03396 63.8494 5.03171 63.8174C5.03144 63.8135 5.03116 63.8096 5.0309 63.8058L5.07394 61.9058C5.78871 30.3588 31.5389 5 63.2419 5C95.4067 5 121.481 31.0696 121.481 63.2363Z" fill="#EB8B3E" stroke="white" stroke-width="10"/>
<path d="M93.9135 52.5073C95.5896 50.8312 96.5312 48.5579 96.5312 46.1875C96.5312 43.8171 95.5896 41.5438 93.9135 39.8677C92.2374 38.1916 89.9641 37.25 87.5938 37.25C85.2234 37.25 82.9501 38.1916 81.274 39.8677C79.5979 41.5438 78.6562 43.8171 78.6562 46.1875C78.6562 48.5579 79.5979 50.8312 81.274 52.5073C82.9501 54.1834 85.2234 55.125 87.5938 55.125C89.9641 55.125 92.2374 54.1834 93.9135 52.5073Z" fill="white" stroke="white"/>
<mask id="path-3-outside-1_34_1131" maskUnits="userSpaceOnUse" x="31.75" y="49.862" width="68" height="59" fill="black">
<rect fill="white" x="31.75" y="49.862" width="68" height="59"/>
<path fill-rule="evenodd" clip-rule="evenodd" d="M59.0818 51.0138C59.8868 50.8915 60.7013 50.843 61.5151 50.8686C61.7851 50.8821 62.0889 50.9024 62.4365 50.9361C70.4791 51.7731 76.4428 57.8076 80.4185 63.7679L80.6311 64.0851C81.6328 65.5874 82.9899 66.8191 84.5819 67.6711C86.1738 68.523 87.9515 68.9687 89.7571 68.9688H96.0312C96.7026 68.9688 97.3464 69.2354 97.8211 69.7101C98.2958 70.1848 98.5625 70.8287 98.5625 71.5C98.5625 72.1713 98.2958 72.8152 97.8211 73.2899C97.3464 73.7646 96.7026 74.0313 96.0312 74.0313H89.7537C87.1147 74.0312 84.5166 73.3796 82.1898 72.1344C79.8631 70.8892 77.8797 69.0888 76.4157 66.8931L76.2065 66.5759C75.3077 65.2173 74.32 63.9196 73.25 62.6913L66.8915 70.6394C65.447 72.4416 64.4817 73.6566 63.8304 74.6556C63.1959 75.6209 63.017 76.1575 62.9698 76.5659C62.8888 77.2409 62.9765 77.926 63.2161 78.5605C63.3646 78.9452 63.6718 79.4245 64.5189 80.2041C65.3964 81.0141 66.6316 81.9524 68.4744 83.3429L68.795 83.5892C71.225 85.432 72.9125 86.7078 74.0769 88.4088C74.7417 89.3774 75.2649 90.4338 75.6395 91.5475C76.2909 93.505 76.2909 95.6177 76.2909 98.6687V105.25C76.2909 105.921 76.0242 106.565 75.5495 107.04C75.0748 107.515 74.431 107.781 73.7596 107.781C73.0883 107.781 72.4445 107.515 71.9698 107.04C71.4951 106.565 71.2284 105.921 71.2284 105.25V99.0738C71.2284 95.4625 71.1946 94.2306 70.8369 93.1506C70.6141 92.4826 70.2994 91.8487 69.902 91.2674C69.2608 90.3291 68.2955 89.563 65.4133 87.3794L65.3187 87.3085C63.5975 86.0057 62.1699 84.9224 61.0932 83.9301C59.966 82.894 59.0311 81.787 58.4878 80.3661C57.9547 78.969 57.7671 77.4638 57.941 75.9786C58.1165 74.4666 58.7544 73.1605 59.5948 71.8814C60.3946 70.6596 61.5151 69.2556 62.8617 67.5715L69.5578 59.2049C67.2391 57.4398 64.6843 56.2653 61.9168 55.9784C61.7103 55.9566 61.5032 55.9408 61.2958 55.9311C60.7875 55.9193 60.2792 55.9532 59.777 56.0324C56.1826 56.5319 52.5815 58.5299 44.7583 62.9748L39.9118 65.7254C39.3281 66.0575 38.6365 66.1441 37.989 65.9663C37.3415 65.7884 36.7912 65.3606 36.4591 64.777C36.127 64.1934 36.0404 63.5018 36.2183 62.8543C36.3961 62.2068 36.8239 61.6565 37.4075 61.3244L42.254 58.5738L42.767 58.2801C49.922 54.2166 54.4074 51.6651 59.0851 51.0205M57.1512 86.4344C57.6667 86.8641 57.9903 87.481 58.0511 88.1493C58.1118 88.8176 57.9047 89.4827 57.4753 89.9984L54.1003 94.0517L53.7729 94.4433C51.6061 97.0454 50.0165 98.959 47.7958 99.9985C45.575 101.038 43.0876 101.038 39.6958 101.035H35.2812C34.6099 101.035 33.9661 100.768 33.4914 100.293C33.0167 99.8185 32.75 99.1747 32.75 98.5034C32.75 97.832 33.0167 97.1882 33.4914 96.7135C33.9661 96.2388 34.6099 95.9721 35.2812 95.9721H39.1895C43.3137 95.9721 44.576 95.9148 45.6459 95.4153C46.7191 94.9124 47.5696 93.9775 50.2089 90.8118L53.5839 86.7584C53.7967 86.5027 54.0579 86.2914 54.3524 86.1368C54.6469 85.9821 54.9691 85.887 55.3004 85.8569C55.6317 85.8268 55.9657 85.8623 56.2833 85.9614C56.6009 86.0605 56.8958 86.2212 57.1512 86.4344Z"/>
</mask>
<path fill-rule="evenodd" clip-rule="evenodd" d="M59.0818 51.0138C59.8868 50.8915 60.7013 50.843 61.5151 50.8686C61.7851 50.8821 62.0889 50.9024 62.4365 50.9361C70.4791 51.7731 76.4428 57.8076 80.4185 63.7679L80.6311 64.0851C81.6328 65.5874 82.9899 66.8191 84.5819 67.6711C86.1738 68.523 87.9515 68.9687 89.7571 68.9688H96.0312C96.7026 68.9688 97.3464 69.2354 97.8211 69.7101C98.2958 70.1848 98.5625 70.8287 98.5625 71.5C98.5625 72.1713 98.2958 72.8152 97.8211 73.2899C97.3464 73.7646 96.7026 74.0313 96.0312 74.0313H89.7537C87.1147 74.0312 84.5166 73.3796 82.1898 72.1344C79.8631 70.8892 77.8797 69.0888 76.4157 66.8931L76.2065 66.5759C75.3077 65.2173 74.32 63.9196 73.25 62.6913L66.8915 70.6394C65.447 72.4416 64.4817 73.6566 63.8304 74.6556C63.1959 75.6209 63.017 76.1575 62.9698 76.5659C62.8888 77.2409 62.9765 77.926 63.2161 78.5605C63.3646 78.9452 63.6718 79.4245 64.5189 80.2041C65.3964 81.0141 66.6316 81.9524 68.4744 83.3429L68.795 83.5892C71.225 85.432 72.9125 86.7078 74.0769 88.4088C74.7417 89.3774 75.2649 90.4338 75.6395 91.5475C76.2909 93.505 76.2909 95.6177 76.2909 98.6687V105.25C76.2909 105.921 76.0242 106.565 75.5495 107.04C75.0748 107.515 74.431 107.781 73.7596 107.781C73.0883 107.781 72.4445 107.515 71.9698 107.04C71.4951 106.565 71.2284 105.921 71.2284 105.25V99.0738C71.2284 95.4625 71.1946 94.2306 70.8369 93.1506C70.6141 92.4826 70.2994 91.8487 69.902 91.2674C69.2608 90.3291 68.2955 89.563 65.4133 87.3794L65.3187 87.3085C63.5975 86.0057 62.1699 84.9224 61.0932 83.9301C59.966 82.894 59.0311 81.787 58.4878 80.3661C57.9547 78.969 57.7671 77.4638 57.941 75.9786C58.1165 74.4666 58.7544 73.1605 59.5948 71.8814C60.3946 70.6596 61.5151 69.2556 62.8617 67.5715L69.5578 59.2049C67.2391 57.4398 64.6843 56.2653 61.9168 55.9784C61.7103 55.9566 61.5032 55.9408 61.2958 55.9311C60.7875 55.9193 60.2792 55.9532 59.777 56.0324C56.1826 56.5319 52.5815 58.5299 44.7583 62.9748L39.9118 65.7254C39.3281 66.0575 38.6365 66.1441 37.989 65.9663C37.3415 65.7884 36.7912 65.3606 36.4591 64.777C36.127 64.1934 36.0404 63.5018 36.2183 62.8543C36.3961 62.2068 36.8239 61.6565 37.4075 61.3244L42.254 58.5738L42.767 58.2801C49.922 54.2166 54.4074 51.6651 59.0851 51.0205M57.1512 86.4344C57.6667 86.8641 57.9903 87.481 58.0511 88.1493C58.1118 88.8176 57.9047 89.4827 57.4753 89.9984L54.1003 94.0517L53.7729 94.4433C51.6061 97.0454 50.0165 98.959 47.7958 99.9985C45.575 101.038 43.0876 101.038 39.6958 101.035H35.2812C34.6099 101.035 33.9661 100.768 33.4914 100.293C33.0167 99.8185 32.75 99.1747 32.75 98.5034C32.75 97.832 33.0167 97.1882 33.4914 96.7135C33.9661 96.2388 34.6099 95.9721 35.2812 95.9721H39.1895C43.3137 95.9721 44.576 95.9148 45.6459 95.4153C46.7191 94.9124 47.5696 93.9775 50.2089 90.8118L53.5839 86.7584C53.7967 86.5027 54.0579 86.2914 54.3524 86.1368C54.6469 85.9821 54.9691 85.887 55.3004 85.8569C55.6317 85.8268 55.9657 85.8623 56.2833 85.9614C56.6009 86.0605 56.8958 86.2212 57.1512 86.4344Z" fill="white"/>
<path d="M61.5151 50.8686L61.5651 49.8699L61.5559 49.8694L61.5466 49.8691L61.5151 50.8686ZM62.4365 50.9361L62.54 49.9415L62.5331 49.9408L62.4365 50.9361ZM80.4185 63.7679L79.5866 64.3228L79.5878 64.3246L80.4185 63.7679ZM80.6311 64.0851L81.4631 63.5304L81.4618 63.5284L80.6311 64.0851ZM89.7571 68.9688L89.7571 69.9688H89.7571V68.9688ZM89.7537 74.0313L89.7537 75.0313H89.7537V74.0313ZM76.4157 66.8931L75.581 67.4437L75.5837 67.4479L76.4157 66.8931ZM76.2065 66.5759L77.0413 66.0253L77.0405 66.0241L76.2065 66.5759ZM73.25 62.6913L74.004 62.0344L73.2173 61.1313L72.4691 62.0666L73.25 62.6913ZM66.8915 70.6394L67.6718 71.2648L67.6724 71.2641L66.8915 70.6394ZM63.8304 74.6556L64.666 75.2049L64.668 75.2018L63.8304 74.6556ZM62.9698 76.5659L63.9626 76.685L63.9631 76.6808L62.9698 76.5659ZM63.2161 78.5605L62.2806 78.9138L62.2832 78.9206L63.2161 78.5605ZM64.5189 80.2041L65.1972 79.4693L65.1961 79.4683L64.5189 80.2041ZM68.4744 83.3429L69.0837 82.5499L69.0767 82.5446L68.4744 83.3429ZM68.795 83.5892L68.1857 84.3822L68.1908 84.3861L68.795 83.5892ZM74.0769 88.4088L73.2517 88.9736L73.2524 88.9747L74.0769 88.4088ZM75.6395 91.5475L76.5884 91.2318L76.5873 91.2287L75.6395 91.5475ZM76.2909 105.25H77.2909H76.2909ZM70.8369 93.1506L71.7862 92.8362L71.7855 92.8343L70.8369 93.1506ZM69.902 91.2674L69.0764 91.8316L69.0765 91.8317L69.902 91.2674ZM65.4133 87.3794L66.0171 86.5823L66.0132 86.5794L65.4133 87.3794ZM65.3187 87.3085L64.7152 88.1059L64.7188 88.1085L65.3187 87.3085ZM61.0932 83.9301L61.771 83.1948L61.77 83.1939L61.0932 83.9301ZM58.4878 80.3661L57.5534 80.7226L57.5537 80.7233L58.4878 80.3661ZM57.941 75.9786L58.9342 76.0949L58.9343 76.0939L57.941 75.9786ZM59.5948 71.8814L60.4305 72.4305L60.4314 72.4291L59.5948 71.8814ZM62.8617 67.5715L62.081 66.9467L62.0807 66.947L62.8617 67.5715ZM69.5578 59.2049L70.3385 59.8297L70.9787 59.0298L70.1635 58.4092L69.5578 59.2049ZM61.9168 55.9784L61.8118 56.9729L61.8136 56.973L61.9168 55.9784ZM61.2958 55.9311L61.3424 54.9322L61.3307 54.9317L61.319 54.9314L61.2958 55.9311ZM59.777 56.0324L59.9146 57.0229L59.9237 57.0216L59.9328 57.0202L59.777 56.0324ZM44.7583 62.9748L45.2518 63.8444L45.2522 63.8442L44.7583 62.9748ZM39.9118 65.7254L39.4182 64.8557L39.4172 64.8562L39.9118 65.7254ZM37.4075 61.3244L36.9139 60.4547L36.9129 60.4552L37.4075 61.3244ZM42.254 58.5738L42.7476 59.4434L42.7508 59.4416L42.254 58.5738ZM42.767 58.2801L42.2732 57.4106L42.2702 57.4122L42.767 58.2801ZM57.1512 86.4344L56.5105 87.2021L56.5108 87.2024L57.1512 86.4344ZM57.4753 89.9984L56.7068 89.3584L56.7068 89.3585L57.4753 89.9984ZM54.1003 94.0517L54.8674 94.6932L54.8687 94.6916L54.1003 94.0517ZM53.7729 94.4433L53.0057 93.8018L53.0044 93.8034L53.7729 94.4433ZM39.6958 101.035L39.6967 100.035H39.6958V101.035ZM35.2812 101.035V102.035V101.035ZM45.6459 95.4153L46.0689 96.3214L46.0702 96.3208L45.6459 95.4153ZM50.2089 90.8118L50.977 91.4521L50.9774 91.4516L50.2089 90.8118ZM53.5839 86.7584L54.3524 87.3982L54.3525 87.3981L53.5839 86.7584ZM59.2318 52.0024C59.9768 51.8893 60.7305 51.8444 61.4836 51.8681L61.5466 49.8691C60.6721 49.8415 59.7968 49.8937 58.9317 50.0251L59.2318 52.0024ZM61.4652 51.8674C61.7222 51.8802 62.0102 51.8994 62.3399 51.9314L62.5331 49.9408C62.1676 49.9053 61.8481 49.884 61.5651 49.8699L61.4652 51.8674ZM62.333 51.9308C69.9219 52.7205 75.6614 58.4383 79.5866 64.3228L81.2504 63.213C77.2241 57.1769 71.0363 50.8257 62.54 49.9415L62.333 51.9308ZM79.5878 64.3246L79.8004 64.6419L81.4618 63.5284L81.2492 63.2111L79.5878 64.3246ZM79.7991 64.6399C80.8921 66.2791 82.3729 67.6232 84.11 68.5528L85.0537 66.7894C83.6068 66.0151 82.3735 64.8957 81.4631 63.5304L79.7991 64.6399ZM84.11 68.5528C85.8472 69.4824 87.7869 69.9687 89.7571 69.9688L89.7571 67.9688C88.1161 67.9687 86.5005 67.5636 85.0537 66.7894L84.11 68.5528ZM89.7571 69.9688H96.0312V67.9688H89.7571V69.9688ZM96.0312 69.9688C96.4374 69.9688 96.8268 70.1301 97.114 70.4172L98.5282 69.003C97.866 68.3408 96.9678 67.9688 96.0312 67.9688V69.9688ZM97.114 70.4172C97.4012 70.7044 97.5625 71.0939 97.5625 71.5H99.5625C99.5625 70.5635 99.1905 69.6653 98.5282 69.003L97.114 70.4172ZM97.5625 71.5C97.5625 71.9061 97.4012 72.2956 97.114 72.5828L98.5282 73.997C99.1905 73.3347 99.5625 72.4365 99.5625 71.5H97.5625ZM97.114 72.5828C96.8268 72.8699 96.4374 73.0313 96.0312 73.0313V75.0313C96.9678 75.0313 97.866 74.6592 98.5282 73.997L97.114 72.5828ZM96.0312 73.0313H89.7537V75.0313H96.0312V73.0313ZM89.7538 73.0313C87.2794 73.0312 84.8433 72.4203 82.6617 71.2527L81.718 73.0161C84.1899 74.339 86.9501 75.0312 89.7537 75.0313L89.7538 73.0313ZM82.6617 71.2527C80.4801 70.0852 78.6204 68.3971 77.2478 66.3384L75.5837 67.4479C77.139 69.7805 79.2461 71.6932 81.718 73.0161L82.6617 71.2527ZM77.2505 66.3425L77.0413 66.0253L75.3717 67.1265L75.581 67.4437L77.2505 66.3425ZM77.0405 66.0241C76.1174 64.6287 75.103 63.2959 74.004 62.0344L72.496 63.3481C73.5371 64.5432 74.498 65.8058 75.3725 67.1276L77.0405 66.0241ZM72.4691 62.0666L66.1106 70.0147L67.6724 71.2641L74.0309 63.3159L72.4691 62.0666ZM66.1112 70.014C64.678 71.8021 63.6769 73.0602 62.9927 74.1094L64.668 75.2018C65.2866 74.2531 66.216 73.0811 67.6718 71.2648L66.1112 70.014ZM62.9947 74.1063C62.3191 75.1341 62.049 75.823 61.9764 76.4509L63.9631 76.6808C63.985 76.492 64.0726 76.1076 64.666 75.2049L62.9947 74.1063ZM61.9769 76.4467C61.8762 77.2859 61.9857 78.1329 62.2806 78.9138L64.1516 78.2072C63.9673 77.7191 63.9013 77.1959 63.9626 76.685L61.9769 76.4467ZM62.2832 78.9206C62.5094 79.5068 62.9388 80.109 63.8417 80.9399L65.1961 79.4683C64.4047 78.74 64.2198 78.3837 64.149 78.2004L62.2832 78.9206ZM63.8406 80.9389C64.7629 81.7903 66.0448 82.7623 67.872 84.1411L69.0767 82.5446C67.2184 81.1424 66.0298 80.238 65.1972 79.4693L63.8406 80.9389ZM67.8651 84.1358L68.1857 84.3822L69.4043 82.7963L69.0837 82.5499L67.8651 84.1358ZM68.1908 84.3861C70.6605 86.259 72.1979 87.4342 73.2517 88.9736L74.9021 87.8439C73.6271 85.9813 71.7895 84.605 69.3992 82.7924L68.1908 84.3861ZM73.2524 88.9747C73.8637 89.8652 74.3459 90.8382 74.6917 91.8663L76.5873 91.2287C76.1839 90.0293 75.6198 88.8895 74.9013 87.8428L73.2524 88.9747ZM74.6907 91.8632C75.2804 93.6356 75.2909 95.5695 75.2909 98.6687H77.2909C77.2909 95.666 77.3013 93.3744 76.5883 91.2318L74.6907 91.8632ZM75.2909 98.6687V105.25H77.2909V98.6687H75.2909ZM75.2909 105.25C75.2909 105.656 75.1295 106.046 74.8424 106.333L76.2566 107.747C76.9188 107.085 77.2909 106.187 77.2909 105.25H75.2909ZM74.8424 106.333C74.5552 106.62 74.1657 106.781 73.7596 106.781V108.781C74.6962 108.781 75.5944 108.409 76.2566 107.747L74.8424 106.333ZM73.7596 106.781C73.3535 106.781 72.964 106.62 72.6769 106.333L71.2627 107.747C71.9249 108.409 72.8231 108.781 73.7596 108.781V106.781ZM72.6769 106.333C72.3897 106.046 72.2284 105.656 72.2284 105.25H70.2284C70.2284 106.187 70.6004 107.085 71.2627 107.747L72.6769 106.333ZM72.2284 105.25V99.0738H70.2284V105.25H72.2284ZM72.2284 99.0738C72.2284 95.5336 72.2068 94.1062 71.7861 92.8362L69.8876 93.4651C70.1824 94.3551 70.2284 95.3914 70.2284 99.0738H72.2284ZM71.7855 92.8343C71.5334 92.0782 71.1773 91.3609 70.7275 90.703L69.0765 91.8317C69.4216 92.3365 69.6948 92.8869 69.8882 93.467L71.7855 92.8343ZM70.7276 90.7031C69.9718 89.5973 68.8389 88.7201 66.0171 86.5823L64.8094 88.1765C67.7521 90.4059 68.5497 91.061 69.0764 91.8316L70.7276 90.7031ZM66.0132 86.5794L65.9187 86.5085L64.7188 88.1085L64.8133 88.1794L66.0132 86.5794ZM65.9222 86.5111C64.1881 85.1986 62.8043 84.1471 61.771 83.1948L60.4155 84.6655C61.5355 85.6976 63.0069 86.8129 64.7153 88.1059L65.9222 86.5111ZM61.77 83.1939C60.6982 82.2088 59.8872 81.2259 59.4218 80.0089L57.5537 80.7233C58.1751 82.3481 59.2338 83.5792 60.4165 84.6664L61.77 83.1939ZM59.4221 80.0097C58.9465 78.7631 58.7791 77.4201 58.9342 76.0949L56.9478 75.8624C56.7552 77.5076 56.963 79.175 57.5534 80.7226L59.4221 80.0097ZM58.9343 76.0939C59.0845 74.8006 59.6317 73.6463 60.4305 72.4305L58.759 71.3323C57.877 72.6747 57.1485 74.1327 56.9477 75.8633L58.9343 76.0939ZM60.4314 72.4291C61.1996 71.2558 62.286 69.8928 63.6428 68.196L62.0807 66.947C60.7443 68.6184 59.5897 70.0635 58.7581 71.3336L60.4314 72.4291ZM63.6425 68.1964L70.3385 59.8297L68.777 58.58L62.081 66.9467L63.6425 68.1964ZM70.1635 58.4092C67.7342 56.5598 65.0097 55.2936 62.0199 54.9837L61.8136 56.973C64.3588 57.2369 66.7441 58.3197 68.952 60.0005L70.1635 58.4092ZM62.0217 54.9839C61.7959 54.9601 61.5693 54.9428 61.3424 54.9322L61.2491 56.93C61.437 56.9388 61.6247 56.9531 61.8118 56.9728L62.0217 54.9839ZM61.319 54.9314C60.7508 54.9182 60.1826 54.956 59.6212 55.0446L59.9328 57.0202C60.3758 56.9503 60.8241 56.9204 61.2725 56.9309L61.319 54.9314ZM59.6394 55.0419C55.809 55.5742 52.0114 57.7036 44.2643 62.1053L45.2522 63.8442C53.1516 59.3561 56.5563 57.4896 59.9146 57.0229L59.6394 55.0419ZM44.2647 62.1051L39.4182 64.8557L40.4053 66.5951L45.2518 63.8444L44.2647 62.1051ZM39.4172 64.8562C39.0641 65.0572 38.6456 65.1096 38.2539 65.002L37.7242 66.9305C38.6274 67.1786 39.5922 67.0578 40.4063 66.5945L39.4172 64.8562ZM38.2539 65.002C37.8621 64.8944 37.5292 64.6355 37.3283 64.2824L35.59 65.2716C36.0532 66.0857 36.8209 66.6824 37.7242 66.9305L38.2539 65.002ZM37.3283 64.2824C37.1274 63.9293 37.0749 63.5109 37.1825 63.1191L35.254 62.5894C35.0059 63.4926 35.1267 64.4574 35.59 65.2716L37.3283 64.2824ZM37.1825 63.1191C37.2901 62.7274 37.549 62.3944 37.9021 62.1935L36.9129 60.4552C36.0988 60.9185 35.5021 61.6862 35.254 62.5894L37.1825 63.1191ZM37.9011 62.1941L42.7476 59.4434L41.7604 57.7041L36.9139 60.4547L37.9011 62.1941ZM42.7508 59.4416L43.2638 59.148L42.2702 57.4122L41.7572 57.7059L42.7508 59.4416ZM43.2608 59.1497C50.4796 55.05 54.7771 52.6236 59.2216 52.0111L58.9486 50.0299C54.0376 50.7066 49.3644 53.3833 42.2732 57.4106L43.2608 59.1497ZM56.5108 87.2024C56.8226 87.4624 57.0184 87.8355 57.0552 88.2398L59.047 88.0588C58.9622 87.1264 58.5107 86.2659 57.7917 85.6663L56.5108 87.2024ZM57.0552 88.2398C57.0919 88.6441 56.9666 89.0465 56.7068 89.3584L58.2437 90.6383C58.8428 89.919 59.1317 88.9911 59.047 88.0588L57.0552 88.2398ZM56.7068 89.3585L53.3318 93.4119L54.8687 94.6916L58.2437 90.6382L56.7068 89.3585ZM53.3331 93.4103L53.0057 93.8018L54.54 95.0847L54.8674 94.6932L53.3331 93.4103ZM53.0044 93.8034C50.7964 96.4551 49.3504 98.1667 47.3718 99.0928L48.2197 100.904C50.6826 99.7513 52.4159 97.6357 54.5413 95.0831L53.0044 93.8034ZM47.3718 99.0928C45.3927 100.019 43.1511 100.038 39.6967 100.035L39.6948 102.035C43.0241 102.038 45.7573 102.057 48.2197 100.904L47.3718 99.0928ZM39.6958 100.035H35.2812V102.035H39.6958V100.035ZM35.2813 100.035C34.8751 100.035 34.4857 99.8733 34.1985 99.5861L32.7843 101C33.4465 101.663 34.3447 102.035 35.2812 102.035L35.2813 100.035ZM34.1985 99.5861C33.9113 99.299 33.75 98.9095 33.75 98.5034H31.75C31.75 99.4399 32.122 100.338 32.7843 101L34.1985 99.5861ZM33.75 98.5034C33.75 98.0973 33.9113 97.7078 34.1985 97.4206L32.7843 96.0064C32.122 96.6686 31.75 97.5668 31.75 98.5034H33.75ZM34.1985 97.4206C34.4857 97.1335 34.8751 96.9721 35.2812 96.9721V94.9721C34.3447 94.9721 33.4465 95.3442 32.7843 96.0064L34.1985 97.4206ZM35.2812 96.9721H39.1895V94.9721H35.2812V96.9721ZM39.1895 96.9721C41.2421 96.9721 42.6305 96.9584 43.6424 96.8778C44.6745 96.7957 45.387 96.6397 46.0689 96.3214L45.2228 94.5091C44.8349 94.6903 44.3813 94.8127 43.4837 94.8842C42.566 94.9572 41.2611 94.9721 39.1895 94.9721V96.9721ZM46.0702 96.3208C46.7543 96.0002 47.3313 95.5518 48.0552 94.8111C48.7649 94.085 49.6637 93.0274 50.977 91.4521L49.4408 90.1714C48.1148 91.7619 47.2687 92.7545 46.625 93.4131C45.9956 94.057 45.6107 94.3274 45.2216 94.5097L46.0702 96.3208ZM50.9774 91.4516L54.3524 87.3982L52.8154 86.1185L49.4404 90.1719L50.9774 91.4516ZM54.3525 87.3981C54.4812 87.2434 54.6392 87.1157 54.8174 87.0221L53.8874 85.2514C53.4765 85.4672 53.1122 85.7619 52.8153 86.1186L54.3525 87.3981ZM54.8174 87.0221C54.9955 86.9285 55.1904 86.871 55.3908 86.8528L55.2099 84.861C54.7477 84.9029 54.2983 85.0356 53.8874 85.2514L54.8174 87.0221ZM55.3908 86.8528C55.5913 86.8346 55.7933 86.8561 55.9855 86.916L56.5812 85.0068C56.1381 84.8685 55.6722 84.819 55.2099 84.861L55.3908 86.8528ZM55.9855 86.916C56.1776 86.9759 56.356 87.0732 56.5105 87.2021L57.792 85.6666C57.4357 85.3692 57.0242 85.145 56.5812 85.0068L55.9855 86.916Z" fill="white" mask="url(#path-3-outside-1_34_1131)"/>
</svg>