<svg width="165" height="165" viewBox="0 0 165 165" fill="none" xmlns="http://www.w3.org/2000/svg">
<path d="M140.729 63.2491V63.4119L140.738 63.5505L140.738 63.5547L140.738 63.5558L140.739 63.5791C140.74 63.5976 140.741 63.625 140.742 63.6613C140.743 63.6964 140.745 63.7398 140.746 63.7913C140.751 64.0008 140.755 64.3451 140.745 64.8178C140.727 65.7633 140.656 67.2219 140.438 69.1414L140.414 69.3548C140.252 70.6997 140.022 72.2627 139.695 74.004L139.694 74.0131L139.692 74.0222C139.581 74.6278 139.47 75.2003 139.349 75.7606L139.346 75.7759L139.342 75.7912C135.898 92.2111 124.007 123.704 82.7487 158.294C74.249 150.096 60.9715 137.067 49.1608 121.63C35.614 103.923 24.6724 83.8953 24.3455 65.0188L24.345 64.9895L24.3442 64.9602C24.333 64.576 24.3056 64.1936 24.287 63.9351C24.2843 63.8974 24.2818 63.8623 24.2795 63.8302C24.2793 63.8263 24.279 63.8225 24.2787 63.8186L24.3218 61.9186C25.0365 30.3717 50.7867 5.01288 82.4897 5.01288C114.655 5.01288 140.729 31.0825 140.729 63.2491Z" fill="#50A885" stroke="white" stroke-width="10"/>
<path d="M62.5225 112.875L74.5316 51.0288C74.782 49.684 75.4394 48.636 76.5038 47.8847C77.5655 47.1333 78.6694 46.7577 79.8154 46.7577C81.0132 46.7577 82.1334 47.019 83.176 47.5417C84.2132 48.0643 85.0353 48.8497 85.6423 49.8977L89.7257 56.4311C91.0568 58.5626 93.0195 60.5852 95.6138 62.4989C98.2081 64.4099 101.313 65.8976 104.928 66.962V59.0077H108.542V112.875H104.928V71.0372C101.348 70.2886 97.8882 68.8744 94.5481 66.7946C91.2079 64.7175 88.1509 61.9912 85.3769 58.6157L81.9061 76.0474L90.6362 84.3692V112.875H86.5529V88.767L74.3682 79.3427L66.9325 112.875H62.5225ZM62.5347 72.1601L55.9769 70.9187C55.4107 70.7663 54.952 70.4669 54.6008 70.0204C54.2497 69.574 54.1503 69.0595 54.3027 68.4769L57.3652 52.4498C57.7218 50.8464 58.6175 49.5466 60.0521 48.5502C61.4867 47.5539 63.0043 47.234 64.605 47.5907L67.2592 48.195L62.5347 72.1601ZM86.5529 42.2007C84.6746 42.2007 83.0535 41.5201 81.6897 40.159C80.3285 38.7924 79.648 37.17 79.648 35.2917C79.648 33.4133 80.3285 31.7922 81.6897 30.4284C83.0535 29.0646 84.6746 28.3827 86.5529 28.3827C88.4312 28.3827 90.0537 29.0632 91.4202 30.4243C92.7814 31.7909 93.4619 33.4133 93.4619 35.2917C93.4619 37.17 92.7814 38.7911 91.4202 40.1549C90.0564 41.5187 88.434 42.2007 86.5529 42.2007Z" fill="white"/>
</svg>