<svg width="175" height="249" viewBox="0 0 175 249" fill="none" xmlns="http://www.w3.org/2000/svg">
<path d="M87.15 249C87.15 249 0 135.331 0 87.15C-1.70539e-07 75.7053 2.2542 64.3727 6.6339 53.7991C11.0136 43.2256 17.433 33.6183 25.5256 25.5256C33.6183 17.433 43.2256 11.0136 53.7991 6.6339C64.3727 2.2542 75.7053 0 87.15 0C98.5947 0 109.927 2.2542 120.501 6.6339C131.074 11.0136 140.682 17.433 148.774 25.5256C156.867 33.6183 163.286 43.2256 167.666 53.7991C172.046 64.3727 174.3 75.7053 174.3 87.15C174.3 135.331 87.15 249 87.15 249ZM87.15 112.05C93.7539 112.05 100.087 109.427 104.757 104.757C109.427 100.087 112.05 93.7539 112.05 87.15C112.05 80.5461 109.427 74.2127 104.757 69.543C100.087 64.8734 93.7539 62.25 87.15 62.25C80.5461 62.25 74.2127 64.8734 69.543 69.543C64.8734 74.2127 62.25 80.5461 62.25 87.15C62.25 93.7539 64.8734 100.087 69.543 104.757C74.2127 109.427 80.5461 112.05 87.15 112.05Z" fill="#0F3009"/>
<rect x="41" y="47" width="94" height="86" fill="#0F3009"/>
<path d="M54.375 150.5L71.6719 64.975C72.2344 62.3167 73.5 60.322 75.4688 58.991C77.4375 57.66 79.5 56.9963 81.6563 57C83.8125 57 85.8056 57.4583 87.6356 58.375C89.4656 59.2917 90.9412 60.6667 92.0625 62.5L97.6875 71.3C99.375 73.9583 101.556 76.3655 104.229 78.5215C106.903 80.6775 109.972 82.2578 113.438 83.2625V73.5H121.875V150.5H113.438V94.675C108.938 93.6667 104.766 92.0625 100.922 89.8625C97.0781 87.6625 93.75 84.9583 90.9375 81.75L87.5625 98.25L99.375 109.25V150.5H88.125V117.5L76.3125 106.5L66.1875 150.5H54.375ZM56.7656 96.1875L44.8125 93.9875C43.3125 93.7125 42.1406 92.9553 41.2969 91.716C40.4531 90.4767 40.1719 89.0797 40.4531 87.525L44.6719 65.9375C45.2344 63.0042 46.8281 60.6887 49.4531 58.991C52.0781 57.2933 54.8906 56.7213 57.8906 57.275L64.3594 58.5125L56.7656 96.1875ZM90.9375 54.25C87.8437 54.25 85.1963 53.1738 82.995 51.0215C80.7938 48.8692 79.6912 46.2787 79.6875 43.25C79.6875 40.225 80.79 37.6363 82.995 35.484C85.2 33.3317 87.8475 32.2537 90.9375 32.25C94.0312 32.25 96.6806 33.328 98.8856 35.484C101.091 37.64 102.191 40.2287 102.187 43.25C102.187 46.275 101.087 48.8655 98.8856 51.0215C96.6844 53.1775 94.035 54.2537 90.9375 54.25Z" fill="white"/>
</svg>
