<svg width="127" height="165" viewBox="0 0 127 165" fill="none" xmlns="http://www.w3.org/2000/svg">
<path d="M121.481 63.2363V63.399L121.49 63.5376L121.49 63.5423L121.49 63.5429L121.491 63.5662C121.493 63.6027 121.496 63.6737 121.498 63.7784C121.503 63.9879 121.507 64.3323 121.497 64.805C121.479 65.7504 121.408 67.2091 121.19 69.1286L121.166 69.3419C121.004 70.6868 120.774 72.2498 120.447 73.9911L120.446 74.0002L120.444 74.0093C120.333 74.6149 120.222 75.1875 120.101 75.7477L120.098 75.763L120.094 75.7783C116.65 92.1982 104.759 123.691 63.5009 158.281C55.0012 150.083 41.7237 137.054 29.913 121.617C16.3662 103.91 5.42457 83.8824 5.09768 65.0059L5.09717 64.9766L5.09632 64.9473C5.08516 64.5631 5.05772 64.1807 5.03918 63.9222C5.03647 63.8845 5.03396 63.8494 5.03171 63.8174C5.03144 63.8135 5.03116 63.8096 5.0309 63.8058L5.07394 61.9058C5.78871 30.3588 31.5389 5 63.2419 5C95.4067 5 121.481 31.0696 121.481 63.2363Z" fill="#277A9D" stroke="white" stroke-width="10"/>
<path d="M25.3333 100.333V93H29C30.9556 93 32.85 92.6944 34.6833 92.0833C36.5167 91.4722 38.2889 90.5556 40 89.3333C41.7111 90.5556 43.4833 91.4722 45.3167 92.0833C47.15 92.6944 49.0444 93 51 93C52.9556 93 54.8659 92.6944 56.731 92.0833C58.5961 91.4722 60.3524 90.5556 62 89.3333C63.7111 90.5556 65.4833 91.4722 67.3167 92.0833C69.15 92.6944 71.0444 93 73 93C74.9556 93 76.8659 92.6944 78.731 92.0833C80.5961 91.4722 82.3524 90.5556 84 89.3333C85.65 90.5556 87.4076 91.4722 89.2727 92.0833C91.1378 92.6944 93.0469 93 95 93H98.6667V100.333H95C93.1056 100.333 91.2417 100.105 89.4083 99.6477C87.575 99.1906 85.7722 98.5024 84 97.5833C82.2278 98.5 80.425 99.1881 78.5917 99.6477C76.7583 100.107 74.8944 100.336 73 100.333C71.1056 100.333 69.2417 100.105 67.4083 99.6477C65.575 99.1906 63.7722 98.5024 62 97.5833C60.2278 98.5 58.425 99.1881 56.5917 99.6477C54.7583 100.107 52.8944 100.336 51 100.333C49.1056 100.333 47.2417 100.105 45.4083 99.6477C43.575 99.1906 41.7722 98.5024 40 97.5833C38.2278 98.5 36.425 99.1881 34.5917 99.6477C32.7583 100.107 30.8944 100.336 29 100.333H25.3333ZM51 85.6667C48.8 85.6667 46.7528 85.1472 44.8583 84.1083C42.9639 83.0694 41.3444 81.7556 40 80.1667C38.9611 81.2667 37.8159 82.2603 36.5643 83.1477C35.3128 84.035 33.9219 84.7219 32.3917 85.2083C29.8861 84.5361 27.35 83.7417 24.7833 82.825C22.2167 81.9083 19.9556 81.0222 18 80.1667C21.3 78.7611 25.3333 77.325 30.1 75.8583C34.8667 74.3917 39.5417 73.2917 44.125 72.5583L49.075 57.25C49.7472 55.1722 51.0159 53.7972 52.881 53.125C54.7461 52.4528 56.5024 52.5444 58.15 53.4L67.5 58.1667L77.8583 52.6667L83.9083 39.1L82.075 34.2417L86.9333 23.3333L98.6667 28.5583L93.8083 39.4667L88.95 41.3L75.3833 71.9167C81.0667 72.5889 86.7647 73.75 92.4773 75.4C98.19 77.05 102.698 78.6389 106 80.1667C104.228 80.9611 101.981 81.8326 99.2607 82.781C96.54 83.7294 93.9892 84.5386 91.6083 85.2083C90.0806 84.7806 88.6909 84.1242 87.4393 83.2393C86.1878 82.3544 85.0413 81.3302 84 80.1667C82.6556 81.7556 81.0361 83.0694 79.1417 84.1083C77.2472 85.1472 75.2 85.6667 73 85.6667C70.8 85.6667 68.7528 85.1472 66.8583 84.1083C64.9639 83.0694 63.3444 81.7556 62 80.1667C60.6556 81.7556 59.0361 83.0694 57.1417 84.1083C55.2472 85.1472 53.2 85.6667 51 85.6667ZM69.6083 71.275L73.0917 63.4833L67.5 66.4167L61.0833 63.1167L58.5167 71H62C63.2833 71 64.5667 71.0159 65.85 71.0477C67.1333 71.0794 68.3861 71.1552 69.6083 71.275ZM62 50.8333C59.9833 50.8333 58.2576 50.1159 56.8227 48.681C55.3878 47.2461 54.6691 45.5191 54.6667 43.5C54.6667 41.4833 55.3853 39.7576 56.8227 38.3227C58.26 36.8878 59.9858 36.1691 62 36.1667C64.0167 36.1667 65.7437 36.8853 67.181 38.3227C68.6183 39.76 69.3358 41.4858 69.3333 43.5C69.3333 45.5167 68.6159 47.2437 67.181 48.681C65.7461 50.1183 64.0191 50.8358 62 50.8333Z" fill="white"/>
</svg>
