<svg width="175" height="249" viewBox="0 0 175 249" fill="none" xmlns="http://www.w3.org/2000/svg">
<path d="M87.15 249C87.15 249 0 135.331 0 87.15C-1.70539e-07 75.7053 2.2542 64.3727 6.6339 53.7991C11.0136 43.2256 17.433 33.6183 25.5256 25.5256C33.6183 17.433 43.2256 11.0136 53.7991 6.6339C64.3727 2.2542 75.7053 0 87.15 0C98.5947 0 109.927 2.2542 120.501 6.6339C131.074 11.0136 140.682 17.433 148.774 25.5256C156.867 33.6183 163.286 43.2256 167.666 53.7991C172.046 64.3727 174.3 75.7053 174.3 87.15C174.3 135.331 87.15 249 87.15 249ZM87.15 112.05C93.7539 112.05 100.087 109.427 104.757 104.757C109.427 100.087 112.05 93.7539 112.05 87.15C112.05 80.5461 109.427 74.2127 104.757 69.543C100.087 64.8734 93.7539 62.25 87.15 62.25C80.5461 62.25 74.2127 64.8734 69.543 69.543C64.8734 74.2127 62.25 80.5461 62.25 87.15C62.25 93.7539 64.8734 100.087 69.543 104.757C74.2127 109.427 80.5461 112.05 87.15 112.05Z" fill="#43818F"/>
<rect x="40" y="53" width="94" height="86" fill="#43818F"/>
<path d="M68.7913 60.9686C70.17 60.9699 71.5354 60.6994 72.8096 60.1726C74.0837 59.6459 75.2415 58.8732 76.2168 57.8988C77.1921 56.9243 77.9658 55.7672 78.4937 54.4936C79.0216 53.2199 79.2933 51.8548 79.2933 50.4761C79.293 49.0982 79.021 47.734 78.4928 46.4614C77.9646 45.1889 77.1906 44.033 76.2151 43.0599C75.2396 42.0868 74.0818 41.3157 72.8079 40.7906C71.5341 40.2656 70.1692 39.9969 68.7913 40C67.4136 39.9979 66.049 40.2671 64.7755 40.7925C63.5019 41.3178 62.3443 42.089 61.3688 43.0618C60.3933 44.0347 59.6191 45.1902 59.0903 46.4624C58.5615 47.7345 58.2885 49.0984 58.287 50.4761C58.2888 53.2603 59.3965 55.9299 61.3664 57.8975C63.3363 59.8652 66.0071 60.9699 68.7913 60.9686ZM30 118.274C32.36 118.274 34.8356 117.708 36.9549 116.757C39.2095 115.712 41.6634 115.168 44.1482 115.161C46.6286 115.166 49.0782 115.711 51.3273 116.757C53.529 117.742 55.9128 118.254 58.3247 118.26C60.7284 118.255 63.104 117.743 65.2962 116.757C67.548 115.709 70.0011 115.165 72.4847 115.161C74.9663 115.169 77.4168 115.714 79.6686 116.757C81.8607 117.743 84.2363 118.255 86.64 118.26C89.1109 118.26 91.5016 117.708 93.6091 116.757C95.8663 115.712 98.3224 115.168 100.809 115.161C103.363 115.161 105.806 115.751 107.981 116.757C110.18 117.741 112.561 118.253 114.969 118.26C117.447 118.26 119.819 117.708 121.953 116.757C124.042 115.784 126.306 115.245 128.609 115.171C130.912 115.097 133.206 115.49 135.353 116.327C138.595 112.818 140.4 108.217 140.408 103.439C140.408 92.8806 131.839 84.3326 121.268 84.3326L119.123 84.5616C116.77 94.0889 107.219 94.4901 107.219 94.4901L63.512 94.4783L59.8587 92.333L68.6686 77.583L78.3139 83.1432C84.0888 86.8791 87.0955 81.6422 87.0955 81.6422L96.7668 65.9105C100.97 59.0759 92.0538 53.596 87.8766 60.4565L81.1058 71.4824L65.0153 62.5994C53.8643 56.3949 49.1396 66.6727 49.1396 66.6727L36.5018 88.2715C34.3518 92.7602 36.2564 94.6883 36.2564 94.6883L30 94.6789V118.274ZM143.28 139.12C140.881 139.119 138.509 138.607 136.323 137.619C134.066 136.575 131.609 136.032 129.122 136.026C126.645 136.03 124.199 136.574 121.953 137.619C119.756 138.605 117.377 139.116 114.969 139.12C112.561 139.116 110.18 138.605 107.981 137.619C105.734 136.575 103.287 136.032 100.809 136.026C98.3226 136.032 95.8664 136.576 93.6091 137.619C91.4184 138.607 89.0431 139.118 86.64 139.12C84.2362 139.118 81.8602 138.606 79.6686 137.619C77.4166 136.577 74.9661 136.034 72.4847 136.026C70.0021 136.029 67.5498 136.572 65.2985 137.619C63.1066 138.605 60.7307 139.117 58.3271 139.12C55.915 139.117 53.5307 138.606 51.3297 137.619C49.0821 136.574 46.634 136.03 44.1553 136.026C41.6737 136.032 39.2228 136.575 36.9714 137.619C34.7795 138.605 32.4037 139.117 30 139.12V128.696C32.4047 128.688 34.7805 128.172 36.9714 127.181C39.2232 126.138 41.6738 125.595 44.1553 125.588C46.7088 125.588 49.1679 126.178 51.3297 127.181C53.5301 128.171 55.9142 128.687 58.3271 128.696C60.7317 128.688 63.1075 128.172 65.2985 127.181C67.5502 126.135 70.0022 125.592 72.4847 125.588C75.0359 125.588 77.4785 126.178 79.6686 127.181C81.8595 128.172 84.2353 128.688 86.64 128.696C89.0441 128.69 91.4194 128.173 93.6091 127.181C95.8668 126.138 98.3227 125.595 100.809 125.588C103.363 125.588 105.806 126.178 107.981 127.181C110.179 128.17 112.56 128.686 114.969 128.696C117.447 128.696 119.819 128.134 121.953 127.181C124.199 126.137 126.645 125.593 129.122 125.588C131.688 125.588 134.135 126.178 136.323 127.181C138.433 128.132 140.807 128.696 143.28 128.696V139.12Z" fill="white"/>
</svg>
