<svg width="127" height="165" viewBox="0 0 127 165" fill="none" xmlns="http://www.w3.org/2000/svg">
<path d="M121.481 63.2363V63.399L121.49 63.5376L121.49 63.5423L121.49 63.5429L121.491 63.5662C121.493 63.6027 121.496 63.6737 121.498 63.7784C121.503 63.9879 121.507 64.3323 121.497 64.805C121.479 65.7504 121.408 67.2091 121.19 69.1286L121.166 69.3419C121.004 70.6868 120.774 72.2498 120.447 73.9911L120.446 74.0002L120.444 74.0093C120.333 74.6149 120.222 75.1875 120.101 75.7477L120.098 75.763L120.094 75.7783C116.65 92.1982 104.759 123.691 63.5009 158.281C55.0012 150.083 41.7237 137.054 29.913 121.617C16.3662 103.91 5.42457 83.8824 5.09768 65.0059L5.09717 64.9766L5.09632 64.9473C5.08516 64.5631 5.05772 64.1807 5.03918 63.9222C5.03647 63.8845 5.03396 63.8494 5.03171 63.8174C5.03144 63.8135 5.03116 63.8096 5.0309 63.8058L5.07394 61.9058C5.78871 30.3588 31.5389 5 63.2419 5C95.4067 5 121.481 31.0696 121.481 63.2363Z" fill="#DB7477" stroke="white" stroke-width="10"/>
<path d="M28.0833 98.375L52.875 41.7083L70.5833 84.2083L77.6667 62.9583L98.9167 98.375H28.0833ZM86.5208 48.7917C88.8691 48.7917 91.1212 47.8588 92.7817 46.1983C94.4421 44.5379 95.375 42.2858 95.375 39.9375C95.375 37.5892 94.4421 35.3371 92.7817 33.6767C91.1212 32.0162 88.8691 31.0833 86.5208 31.0833C84.1726 31.0833 81.9205 32.0162 80.26 33.6767C78.5995 35.3371 77.6667 37.5892 77.6667 39.9375C77.6667 42.2858 78.5995 44.5379 80.26 46.1983C81.9205 47.8588 84.1726 48.7917 86.5208 48.7917Z" stroke="white" stroke-width="7" stroke-linejoin="round"/>
</svg>